<svg xmlns="http://www.w3.org/2000/svg" xmlns:xlink="http://www.w3.org/1999/xlink" width="400" zoomAndPan="magnify" viewBox="0 0 300 299.999988" height="400" preserveAspectRatio="xMidYMid meet" version="1.0"><defs><clipPath id="0be7bf8f41"><path d="M 192 86 L 256.125 86 L 256.125 108 L 192 108 Z M 192 86 " clip-rule="nonzero"/></clipPath><clipPath id="a04cea096c"><path d="M 200 102 L 256.125 102 L 256.125 199 L 200 199 Z M 200 102 " clip-rule="nonzero"/></clipPath><clipPath id="d2bb13a606"><path d="M 43.875 0 L 92 0 L 92 107 L 43.875 107 Z M 43.875 0 " clip-rule="nonzero"/></clipPath></defs><path fill="#7ca5cb" d="M 153.648438 241.632812 C 152.980469 242.332031 152.242188 242.949219 151.4375 243.484375 C 149.085938 244.976562 146.53125 245.953125 143.78125 246.410156 C 141.378906 246.742188 138.976562 246.777344 136.566406 246.519531 C 134.15625 246.261719 131.8125 245.714844 129.539062 244.882812 C 127.261719 244.046875 125.121094 242.953125 123.113281 241.59375 C 121.105469 240.234375 119.292969 238.65625 117.675781 236.851562 C 113.914062 232.804688 111.15625 228.164062 109.398438 222.925781 C 108.289062 219.582031 107.550781 216.152344 107.191406 212.648438 C 106.882812 209.222656 106.882812 205.792969 107.191406 202.367188 C 107.191406 202.367188 110.324219 205.347656 114.4375 210.078125 C 118.546875 214.804688 123.6875 221.074219 128.828125 226.523438 C 133.570312 231.667969 139.089844 235.78125 145.375 238.855469 C 147.300781 239.757812 149.289062 240.492188 151.335938 241.066406 Z M 153.648438 241.632812 " fill-opacity="1" fill-rule="nonzero"/><path fill="#7ca5cb" d="M 95.265625 276.886719 C 94.125 278.636719 92.601562 279.9375 90.691406 280.792969 C 85.863281 282.964844 80.808594 284.285156 75.53125 284.75 C 73.992188 284.75 72.964844 285.109375 71.832031 285.109375 L 70.136719 285.109375 C 69.777344 285.09375 69.417969 285.09375 69.058594 285.109375 C 68.84375 285.171875 68.628906 285.171875 68.414062 285.105469 C 68.199219 285.039062 68.019531 284.921875 67.875 284.75 C 67.679688 284.375 67.679688 283.996094 67.875 283.621094 C 67.875 283.363281 67.875 283.363281 68.183594 282.847656 C 68.597656 282.308594 69.046875 281.796875 69.519531 281.308594 C 71.664062 279.171875 74.011719 277.289062 76.558594 275.652344 C 81.03125 272.816406 85.84375 270.792969 91 269.589844 C 93.101562 269.078125 95.226562 268.699219 97.375 268.460938 C 97.375 269.179688 97.375 269.898438 97.375 270.667969 C 97.140625 272.902344 96.4375 274.972656 95.265625 276.886719 Z M 95.265625 276.886719 " fill-opacity="1" fill-rule="nonzero"/><path fill="#7ca5cb" d="M 111.300781 273.957031 C 111.609375 270.308594 111.300781 267.378906 111.300781 264.605469 C 111.300781 261.828125 111.300781 259.003906 111.300781 256.277344 C 111.300781 245.539062 110.480469 235.722656 109.8125 227.960938 C 109.8125 226.265625 109.554688 224.671875 109.398438 222.824219 C 108.320312 210.796875 107.292969 203.34375 107.035156 202.265625 C 105.089844 209.742188 103.53125 217.296875 102.359375 224.929688 C 101.125 232.433594 99.789062 241.734375 98.660156 252.785156 C 98.300781 256.742188 97.886719 260.851562 97.476562 265.222656 C 95.285156 264.808594 93.074219 264.515625 90.847656 264.347656 C 88.347656 264.269531 85.859375 264.394531 83.382812 264.71875 C 80.902344 265.046875 78.46875 265.570312 76.074219 266.289062 C 73.679688 267.011719 71.359375 267.917969 69.113281 269.015625 C 66.867188 270.113281 64.726562 271.382812 62.683594 272.828125 C 61.722656 273.515625 60.796875 274.253906 59.910156 275.039062 C 58.746094 276.105469 57.734375 277.304688 56.878906 278.636719 C 55.941406 280.050781 55.304688 281.589844 54.957031 283.25 C 54.609375 284.910156 54.582031 286.574219 54.871094 288.246094 C 55.171875 289.492188 55.636719 290.675781 56.265625 291.792969 C 56.890625 292.910156 57.65625 293.925781 58.566406 294.832031 C 59.472656 295.738281 60.484375 296.503906 61.601562 297.132812 C 62.722656 297.757812 63.90625 298.222656 65.152344 298.523438 C 66.640625 298.933594 67.515625 299.039062 68.441406 299.242188 L 71.320312 299.242188 C 73.03125 299.347656 74.746094 299.347656 76.457031 299.242188 C 83.816406 299.101562 90.84375 297.492188 97.527344 294.414062 C 101.527344 292.355469 104.785156 289.460938 107.292969 285.726562 C 109.621094 282.140625 110.957031 278.21875 111.300781 273.957031 Z M 90.746094 280.792969 C 85.914062 282.964844 80.859375 284.285156 75.585938 284.75 C 74.042969 284.75 73.015625 285.109375 71.882812 285.109375 L 70.136719 285.109375 C 69.777344 285.09375 69.417969 285.09375 69.058594 285.109375 C 68.84375 285.171875 68.628906 285.171875 68.414062 285.105469 C 68.199219 285.039062 68.019531 284.921875 67.875 284.75 C 67.679688 284.375 67.679688 283.996094 67.875 283.621094 C 67.875 283.363281 67.875 283.363281 68.183594 282.847656 C 68.597656 282.308594 69.046875 281.796875 69.519531 281.308594 C 71.664062 279.171875 74.011719 277.289062 76.558594 275.652344 C 81.03125 272.816406 85.84375 270.792969 91 269.589844 C 93.101562 269.078125 95.226562 268.699219 97.375 268.460938 C 97.375 269.179688 97.375 269.898438 97.375 270.667969 C 97.140625 272.902344 96.4375 274.972656 95.265625 276.886719 C 94.09375 278.652344 92.535156 279.953125 90.589844 280.792969 Z M 90.746094 280.792969 " fill-opacity="1" fill-rule="nonzero"/><g clip-path="url(#0be7bf8f41)"><path fill="#7ca5cb" d="M 256.023438 102.257812 L 253.503906 101.332031 L 246.667969 99.019531 C 240.964844 97.21875 233.410156 94.804688 224.777344 92.644531 C 216.140625 90.488281 208.332031 89.046875 202.472656 87.816406 L 195.378906 86.632812 L 192.914062 86.429688 C 192.914062 86.429688 193.324219 87.148438 194.25 88.433594 C 195.621094 90.296875 197.164062 92.011719 198.875 93.570312 C 202.101562 96.539062 205.644531 99.058594 209.511719 101.128906 C 213.375 103.199219 217.433594 104.757812 221.691406 105.800781 C 225.746094 106.777344 229.855469 107.261719 234.027344 107.261719 C 238.195312 107.261719 242.308594 106.777344 246.359375 105.800781 C 248.773438 105.128906 251.121094 104.273438 253.402344 103.234375 Z M 256.023438 102.257812 " fill-opacity="1" fill-rule="nonzero"/></g><path fill="#7ca5cb" d="M 230.429688 175.183594 C 229.621094 176.953125 228.574219 178.570312 227.300781 180.039062 C 226.023438 181.507812 224.566406 182.769531 222.925781 183.816406 C 221.738281 184.636719 220.429688 185.148438 219.003906 185.355469 C 217.578125 185.566406 216.175781 185.445312 214.804688 185 C 214.238281 184.753906 213.710938 184.445312 213.226562 184.066406 C 212.738281 183.683594 212.308594 183.25 211.933594 182.757812 C 211.5625 182.269531 211.257812 181.738281 211.019531 181.167969 C 210.785156 180.597656 210.625 180.007812 210.539062 179.394531 C 210.574219 178.789062 210.691406 178.199219 210.898438 177.628906 C 211.101562 177.058594 211.386719 176.527344 211.746094 176.039062 C 212.109375 175.550781 212.53125 175.125 213.015625 174.757812 C 213.503906 174.394531 214.03125 174.105469 214.601562 173.898438 C 215.792969 173.453125 217.019531 173.128906 218.273438 172.933594 C 219.53125 172.734375 220.796875 172.664062 222.070312 172.722656 C 223.339844 172.777344 224.59375 172.964844 225.828125 173.273438 C 227.0625 173.582031 228.253906 174.015625 229.402344 174.566406 C 229.753906 174.75 230.097656 174.957031 230.429688 175.183594 Z M 230.429688 175.183594 " fill-opacity="1" fill-rule="nonzero"/><g clip-path="url(#a04cea096c)"><path fill="#7ca5cb" d="M 255.300781 125.175781 C 255.972656 117.984375 256.125 112.277344 256.125 108.371094 C 256.125 104.464844 256.125 102.257812 256.125 102.257812 C 256.125 102.667969 253.402344 109.453125 249.1875 121.785156 C 247.027344 128.105469 244.40625 135.917969 241.324219 145.117188 C 239.78125 149.691406 238.085938 154.625 236.183594 159.917969 C 234.285156 165.210938 233.152344 169.425781 231.046875 173.640625 L 230.480469 173.179688 C 228.558594 171.5625 226.46875 170.210938 224.210938 169.117188 C 222.550781 168.289062 220.804688 167.726562 218.972656 167.425781 C 217.140625 167.128906 215.308594 167.109375 213.46875 167.371094 C 211.074219 167.699219 208.867188 168.519531 206.839844 169.835938 C 205.640625 170.660156 204.597656 171.652344 203.71875 172.8125 C 202.839844 173.972656 202.167969 175.242188 201.699219 176.621094 C 201.136719 178.183594 200.851562 179.792969 200.851562 181.453125 C 200.851562 183.113281 201.136719 184.722656 201.699219 186.28125 C 202.878906 189.488281 204.796875 192.160156 207.457031 194.300781 C 208.875 195.40625 210.417969 196.296875 212.082031 196.972656 C 213.820312 197.636719 215.617188 198.011719 217.476562 198.101562 C 221.0625 198.285156 224.488281 197.636719 227.757812 196.148438 C 230.921875 194.636719 233.75 192.644531 236.234375 190.167969 C 238.722656 187.691406 240.726562 184.871094 242.25 181.710938 C 244.761719 176.394531 246.695312 170.878906 248.054688 165.160156 C 249.445312 160.019531 250.523438 154.882812 251.5 150.257812 C 253.234375 141.96875 254.5 133.609375 255.300781 125.175781 Z M 230.324219 175.492188 C 229.515625 177.261719 228.472656 178.878906 227.195312 180.347656 C 225.921875 181.816406 224.460938 183.074219 222.824219 184.125 C 221.636719 184.945312 220.328125 185.457031 218.902344 185.664062 C 217.472656 185.871094 216.074219 185.753906 214.703125 185.304688 C 214.136719 185.0625 213.609375 184.753906 213.121094 184.371094 C 212.636719 183.992188 212.207031 183.558594 211.832031 183.066406 C 211.457031 182.578125 211.152344 182.046875 210.917969 181.476562 C 210.679688 180.90625 210.519531 180.316406 210.4375 179.703125 C 210.46875 179.097656 210.589844 178.507812 210.792969 177.9375 C 211 177.367188 211.285156 176.835938 211.644531 176.347656 C 212.003906 175.859375 212.429688 175.433594 212.914062 175.066406 C 213.398438 174.703125 213.925781 174.414062 214.496094 174.207031 C 215.691406 173.761719 216.914062 173.4375 218.171875 173.242188 C 219.429688 173.042969 220.695312 172.972656 221.964844 173.03125 C 223.238281 173.085938 224.492188 173.269531 225.726562 173.582031 C 226.960938 173.890625 228.152344 174.324219 229.296875 174.875 C 229.683594 175.003906 230.0625 175.160156 230.429688 175.335938 Z M 230.324219 175.492188 " fill-opacity="1" fill-rule="nonzero"/></g><path fill="#7ca5cb" d="M 169.835938 147.6875 C 169.472656 148.542969 169.042969 149.363281 168.550781 150.152344 C 167.765625 151.535156 166.683594 152.632812 165.316406 153.441406 C 163.332031 154.394531 161.242188 154.910156 159.046875 154.984375 C 156.527344 155.242188 153.1875 155.394531 150.875 155.394531 C 149.207031 155.546875 147.613281 155.273438 146.09375 154.574219 C 145.621094 154.371094 145.210938 154.078125 144.859375 153.699219 C 144.632812 153.554688 144.496094 153.347656 144.449219 153.082031 C 144.28125 152.691406 144.28125 152.296875 144.449219 151.902344 C 144.984375 151.140625 145.652344 150.523438 146.453125 150.050781 C 148.464844 148.832031 150.625 147.992188 152.929688 147.53125 C 157.09375 146.589844 161.289062 146.402344 165.519531 146.96875 C 166.972656 147.128906 168.410156 147.367188 169.835938 147.6875 Z M 169.835938 147.6875 " fill-opacity="1" fill-rule="nonzero"/><path fill="#7ca5cb" d="M 191.113281 109.863281 C 192.65625 95.523438 192.65625 86.429688 192.65625 86.429688 C 192.65625 86.429688 189.417969 94.1875 184.691406 107.34375 C 182.324219 113.820312 179.550781 121.683594 176.363281 130.523438 L 171.328125 144.347656 L 170.96875 145.324219 C 169.875 144.625 168.742188 143.988281 167.574219 143.421875 C 163.046875 141.222656 158.269531 140.058594 153.238281 139.925781 C 149.726562 139.75 146.300781 140.210938 142.960938 141.316406 C 140.8125 142.039062 138.894531 143.152344 137.203125 144.65625 C 136.699219 145.09375 136.234375 145.570312 135.804688 146.085938 C 135.378906 146.601562 135 147.148438 134.664062 147.726562 C 134.328125 148.304688 134.039062 148.90625 133.800781 149.53125 C 133.566406 150.15625 133.382812 150.796875 133.25 151.453125 C 133.117188 152.109375 133.039062 152.769531 133.019531 153.441406 C 132.996094 154.109375 133.027344 154.773438 133.113281 155.4375 C 133.203125 156.101562 133.34375 156.75 133.539062 157.390625 C 133.730469 158.03125 133.976562 158.652344 134.273438 159.25 C 135.269531 161.261719 136.640625 162.976562 138.386719 164.390625 C 140.007812 165.613281 141.773438 166.574219 143.683594 167.277344 C 145.589844 167.976562 147.558594 168.386719 149.589844 168.5 C 152.894531 168.734375 156.203125 168.734375 159.507812 168.5 C 163.765625 168.421875 167.792969 167.410156 171.585938 165.46875 C 174.96875 163.585938 177.625 160.964844 179.550781 157.605469 C 181.097656 154.980469 182.296875 152.207031 183.148438 149.28125 C 184.691406 144.140625 185.871094 139.464844 186.847656 134.789062 C 189.109375 125.484375 190.292969 117.007812 191.113281 109.863281 Z M 168.550781 150.152344 C 167.765625 151.535156 166.683594 152.632812 165.316406 153.441406 C 163.332031 154.394531 161.242188 154.910156 159.046875 154.984375 C 156.527344 155.242188 153.1875 155.394531 150.875 155.394531 C 149.207031 155.546875 147.613281 155.273438 146.09375 154.574219 C 145.621094 154.371094 145.210938 154.078125 144.859375 153.699219 C 144.632812 153.554688 144.496094 153.347656 144.449219 153.082031 C 144.28125 152.691406 144.28125 152.296875 144.449219 151.902344 C 144.984375 151.140625 145.652344 150.523438 146.453125 150.050781 C 148.464844 148.832031 150.625 147.992188 152.929688 147.53125 C 157.09375 146.589844 161.289062 146.402344 165.519531 146.96875 C 166.902344 147.136719 168.273438 147.375 169.632812 147.6875 C 169.332031 148.535156 168.972656 149.359375 168.550781 150.152344 Z M 168.550781 150.152344 " fill-opacity="1" fill-rule="nonzero"/><path fill="#7ca5cb" d="M 59.292969 0.449219 C 59.382812 1.488281 59.554688 2.519531 59.804688 3.53125 C 60.546875 6.445312 61.78125 9.136719 63.507812 11.601562 C 66.535156 15.535156 70.074219 18.941406 74.117188 21.824219 C 78.164062 24.703125 82.542969 26.933594 87.25 28.507812 C 97.527344 32.261719 105.90625 34.417969 111.660156 37.296875 C 114.046875 38.523438 116.308594 39.945312 118.445312 41.5625 L 120.859375 43.414062 C 120.773438 42.476562 120.621094 41.550781 120.398438 40.636719 C 119.679688 37.9375 118.53125 35.4375 116.953125 33.132812 C 114.328125 29.441406 111.144531 26.324219 107.394531 23.78125 C 102.625 20.496094 97.519531 17.859375 92.082031 15.867188 C 82.46875 12.320312 74.09375 10.058594 68.234375 7.027344 C 65.800781 5.796875 63.539062 4.308594 61.449219 2.554688 C 59.910156 1.269531 59.292969 0.449219 59.292969 0.449219 Z M 59.292969 0.449219 " fill-opacity="1" fill-rule="nonzero"/><path fill="#7ca5cb" d="M 77.125 82.675781 C 76.15625 84.636719 74.894531 86.382812 73.335938 87.917969 C 71.773438 89.449219 70.007812 90.683594 68.03125 91.617188 C 66.5 92.582031 64.839844 93.199219 63.050781 93.464844 C 61.261719 93.734375 59.496094 93.632812 57.75 93.160156 C 57.082031 92.792969 56.480469 92.335938 55.945312 91.792969 C 55.414062 91.246094 54.96875 90.636719 54.617188 89.957031 C 54.265625 89.28125 54.019531 88.566406 53.878906 87.816406 C 53.738281 87.066406 53.710938 86.3125 53.792969 85.554688 C 53.765625 83.789062 54.035156 82.074219 54.609375 80.402344 C 55.183594 78.734375 56.027344 77.214844 57.132812 75.839844 C 59.269531 73.601562 61.640625 71.644531 64.246094 69.976562 C 66.855469 68.308594 69.621094 66.972656 72.550781 65.972656 L 75.222656 64.945312 L 76.148438 67.925781 C 77.136719 70.261719 77.714844 72.691406 77.882812 75.21875 C 78.050781 77.746094 77.796875 80.234375 77.125 82.675781 Z M 77.125 82.675781 " fill-opacity="1" fill-rule="nonzero"/><g clip-path="url(#d2bb13a606)"><path fill="#7ca5cb" d="M 91.257812 75.53125 C 90.796875 72 89.921875 68.574219 88.636719 65.253906 C 86.429688 59.5 84.371094 54.359375 82.265625 49.324219 C 78.050781 39.457031 74.09375 30.667969 70.648438 23.421875 C 64.125 9.648438 59.292969 1.320312 59.292969 0.449219 C 59.292969 1.425781 60.527344 9.492188 63.710938 23.472656 C 65.410156 30.925781 67.722656 40.070312 70.804688 50.761719 C 71.988281 54.769531 73.21875 59.035156 74.609375 63.507812 L 72.242188 63.765625 C 69.5 64.003906 66.792969 64.46875 64.125 65.152344 C 60.253906 66.054688 56.6875 67.648438 53.433594 69.929688 C 51.210938 71.484375 49.332031 73.378906 47.800781 75.617188 C 46.269531 77.859375 45.183594 80.296875 44.542969 82.933594 C 43.808594 86.121094 43.808594 89.304688 44.542969 92.492188 C 44.933594 94.398438 45.644531 96.175781 46.667969 97.828125 C 47.695312 99.480469 48.972656 100.90625 50.503906 102.101562 C 52.105469 103.371094 53.871094 104.339844 55.800781 105.011719 C 57.730469 105.679688 59.714844 106.011719 61.757812 106.007812 C 65.570312 106.03125 69.238281 105.3125 72.757812 103.851562 C 76.191406 102.417969 79.324219 100.5 82.164062 98.09375 C 85.445312 95.359375 87.949219 92.035156 89.664062 88.125 C 91.320312 84.070312 91.851562 79.871094 91.257812 75.53125 Z M 77.125 82.675781 C 76.15625 84.636719 74.894531 86.382812 73.335938 87.917969 C 71.773438 89.449219 70.007812 90.683594 68.03125 91.617188 C 66.5 92.582031 64.839844 93.199219 63.050781 93.464844 C 61.261719 93.734375 59.496094 93.632812 57.75 93.160156 C 57.082031 92.792969 56.480469 92.335938 55.945312 91.792969 C 55.414062 91.246094 54.96875 90.636719 54.617188 89.957031 C 54.265625 89.28125 54.019531 88.566406 53.878906 87.816406 C 53.738281 87.066406 53.710938 86.3125 53.792969 85.554688 C 53.765625 83.789062 54.035156 82.074219 54.609375 80.402344 C 55.183594 78.734375 56.027344 77.214844 57.132812 75.839844 C 59.269531 73.601562 61.640625 71.644531 64.246094 69.976562 C 66.855469 68.308594 69.621094 66.972656 72.550781 65.972656 L 75.222656 64.945312 L 76.148438 67.925781 C 77.136719 70.261719 77.714844 72.691406 77.882812 75.21875 C 78.050781 77.746094 77.796875 80.234375 77.125 82.675781 Z M 77.125 82.675781 " fill-opacity="1" fill-rule="nonzero"/></g></svg>